{
  "accessors": [
    {
      "bufferView": 1,
      "componentType": 5126,
      "count": 65532,
      "max": [
        0.8999503254890442,
        0.8999875783920288,
        1.0001707077026367
      ],
      "min": [
        -1.0499799251556396,
        -0.9464544653892517,
        -1.0100620985031128
      ],
      "type": "VEC3"
    },
    {
      "bufferView": 1,
      "byteOffset": 786384,
      "componentType": 5126,
      "count": 65532,
      "max": [
        1.0,
        0.9999991655349731,
        0.9996988773345947
      ],
      "min": [
        -0.9999982714653015,
        -0.9999974966049194,
        -1.0
      ],
      "type": "VEC3"
    },
    {
      "bufferView": 0,
      "componentType": 5125,
      "count": 360933,
      "type": "SCALAR"
    },
    {
      "bufferView": 1,
      "byteOffset": 1572768,
      "componentType": 5126,
      "count": 65532,
      "max": [
        1.0061372518539429,
        0.8494975566864014,
        0.8235655426979065
      ],
      "min": [
        -0.9627209901809692,
        -1.028315544128418,
        -0.9874167442321777
      ],
      "type": "VEC3"
    },
    {
      "bufferView": 1,
      "byteOffset": 2359152,
      "componentType": 5126,
      "count": 65532,
      "max": [
        0.9999921917915344,
        0.9864009022712708,
        0.9812682867050171
      ],
      "min": [
        -0.9992604851722717,
        -0.9999675750732422,
        -0.9999419450759888
      ],
      "type": "VEC3"
    },
    {
      "bufferView": 0,
      "byteOffset": 1443732,
      "componentType": 5125,
      "count": 371742,
      "type": "SCALAR"
    },
    {
      "bufferView": 1,
      "byteOffset": 3145536,
      "componentType": 5126,
      "count": 65532,
      "max": [
        1.0325863361358643,
        1.0053443908691406,
        0.96795254945755
      ],
      "min": [
        -0.9388962984085083,
        -0.9271339774131775,
        -0.9893637895584106
      ],
      "type": "VEC3"
    },
    {
      "bufferView": 1,
      "byteOffset": 3931920,
      "componentType": 5126,
      "count": 65532,
      "max": [
        0.9999990463256836,
        0.9999837279319763,
        0.999965488910675
      ],
      "min": [
        -0.9990524649620056,
        -0.9996261596679688,
        -0.9999419450759888
      ],
      "type": "VEC3"
    },
    {
      "bufferView": 0,
      "byteOffset": 2930700,
      "componentType": 5125,
      "count": 361494,
      "type": "SCALAR"
    },
    {
      "bufferView": 1,
      "byteOffset": 4718304,
      "componentType": 5126,
      "count": 65532,
      "max": [
        1.0032906532287598,
        1.005369782447815,
        1.0000419616699219
      ],
      "min": [
        -1.049920916557312,
        -0.9827826023101807,
        -0.9054282307624817
      ],
      "type": "VEC3"
    },
    {
      "bufferView": 1,
      "byteOffset": 5504688,
      "componentType": 5126,
      "count": 65532,
      "max": [
        0.9998977184295654,
        0.9999890923500061,
        0.9999926686286926
      ],
      "min": [
        -0.9999971389770508,
        -0.9997467994689941,
        -0.9999938607215881
      ],
      "type": "VEC3"
    },
    {
      "bufferView": 0,
      "byteOffset": 4376676,
      "componentType": 5125,
      "count": 329121,
      "type": "SCALAR"
    },
    {
      "bufferView": 1,
      "byteOffset": 6291072,
      "componentType": 5126,
      "count": 23590,
      "max": [
        1.0325863361358643,
        1.0017859935760498,
        1.0099999904632568
      ],
      "min": [
        -1.0499372482299805,
        -1.0225627422332764,
        -0.14703387022018433
      ],
      "type": "VEC3"
    },
    {
      "bufferView": 1,
      "byteOffset": 6574152,
      "componentType": 5126,
      "count": 23590,
      "max": [
        0.9999921917915344,
        0.9999421834945679,
        1.0
      ],
      "min": [
        -0.9996849298477173,
        -0.9998899102210999,
        -0.7256917953491211
      ],
      "type": "VEC3"
    },
    {
      "bufferView": 0,
      "byteOffset": 5693160,
      "componentType": 5125,
      "count": 72267,
      "type": "SCALAR"
    }
  ],
  "asset": {
    "extras": {
      "author": "Astronomical Observatory - UV (https://sketchfab.com/ameliaortizgil)",
      "license": "CC-BY-4.0 (http://creativecommons.org/licenses/by/4.0/)",
      "source": "https://sketchfab.com/3d-models/planet-mercury-tactile-model-for-the-blind-2f9197063e9a457c9a099c1d2252067b",
      "title": "Planet Mercury tactile model for the blind"
    },
    "generator": "Sketchfab-15.37.0",
    "version": "2.0"
  },
  "bufferViews": [
    {
      "buffer": 0,
      "byteLength": 5982228,
      "name": "floatBufferViews",
      "target": 34963
    },
    {
      "buffer": 0,
      "byteLength": 6857232,
      "byteOffset": 5982228,
      "byteStride": 12,
      "name": "floatBufferViews",
      "target": 34962
    }
  ],
  "buffers": [
    {
      "byteLength": 12839460,
      "uri": "scene.bin"
    }
  ],
  "materials": [
    {
      "doubleSided": true,
      "name": "Scene_-_Root",
      "pbrMetallicRoughness": {
        "metallicFactor": 0.0,
        "roughnessFactor": 0.6
      }
    }
  ],
  "meshes": [
    {
      "name": "Object_0",
      "primitives": [
        {
          "attributes": {
            "NORMAL": 1,
            "POSITION": 0
          },
          "indices": 2,
          "material": 0,
          "mode": 4
        }
      ]
    },
    {
      "name": "Object_1",
      "primitives": [
        {
          "attributes": {
            "NORMAL": 4,
            "POSITION": 3
          },
          "indices": 5,
          "material": 0,
          "mode": 4
        }
      ]
    },
    {
      "name": "Object_2",
      "primitives": [
        {
          "attributes": {
            "NORMAL": 7,
            "POSITION": 6
          },
          "indices": 8,
          "material": 0,
          "mode": 4
        }
      ]
    },
    {
      "name": "Object_3",
      "primitives": [
        {
          "attributes": {
            "NORMAL": 10,
            "POSITION": 9
          },
          "indices": 11,
          "material": 0,
          "mode": 4
        }
      ]
    },
    {
      "name": "Object_4",
      "primitives": [
        {
          "attributes": {
            "NORMAL": 13,
            "POSITION": 12
          },
          "indices": 14,
          "material": 0,
          "mode": 4
        }
      ]
    }
  ],
  "nodes": [
    {
      "children": [
        1
      ],
      "matrix": [
        1.0,
        0.0,
        0.0,
        0.0,
        0.0,
        2.220446049250313e-16,
        -1.0,
        0.0,
        0.0,
        1.0,
        2.220446049250313e-16,
        0.0,
        0.0,
        0.0,
        0.0,
        1.0
      ],
      "name": "Sketchfab_model"
    },
    {
      "children": [
        2,
        3,
        4,
        5,
        6
      ],
      "name": "Mercury.stl.cleaner.materialmerger.gles"
    },
    {
      "mesh": 0,
      "name": "Object_2"
    },
    {
      "mesh": 1,
      "name": "Object_3"
    },
    {
      "mesh": 2,
      "name": "Object_4"
    },
    {
      "mesh": 3,
      "name": "Object_5"
    },
    {
      "mesh": 4,
      "name": "Object_6"
    }
  ],
  "scene": 0,
  "scenes": [
    {
      "name": "Sketchfab_Scene",
      "nodes": [
        0
      ]
    }
  ]
}
